# xmcd
#
# Track frame offsets: 
#        180
#        21778
#        42055
#        62071
#        83899
#        100752
#        120569
#        138297
#        158850
#        182955
#        206692
#        224265
#
# Disc length: 3210 seconds
#
# Revision: 3
# Processed by: cddbd v1.5.2PL0 Copyright (c) Steve Scherf et al.
# Submitted via: ExactAudioCopy v1.0b3
#
DISCID=a20c880c
DTITLE=林志炫 - 蒙娜麗莎的眼淚
DYEAR=1998
DGENRE=CPop
TTITLE0=Coming Home
TTITLE1=蒙娜麗莎的眼淚
TTITLE2=蜘蛛
TTITLE3=我的眼流下妳的淚
TTITLE4=這就是愛
TTITLE5=拆穿
TTITLE6=給你一些不給一些
TTITLE7=Miss Mama
TTITLE8=互動
TTITLE9=多一點少一點
TTITLE10=冬
TTITLE11=總有
EXTD=
EXTT0=
EXTT1=
EXTT2=
EXTT3=
EXTT4=
EXTT5=
EXTT6=
EXTT7=
EXTT8=
EXTT9=
EXTT10=
EXTT11=
PLAYORDER=
